STARTFONT 2.1
COMMENT  
COMMENT  2002 - Iconian Fonts: www.iconian.com
COMMENT  
COMMENT  WARNING:  This bdf file was generated from a font server using
COMMENT  fstobdf.  The resulting font is subject to the same copyright,
COMMENT  license, and trademark restrictions as the original font.  The
COMMENT  authors and distributors of fstobdf disclaim all liability for
COMMENT  misuse of the program or its output.
COMMENT  
FONT -bitstream-radio space-medium-r-normal--20-193-75-75-p-122-iso8859-1
SIZE 19 75 75
FONTBOUNDINGBOX 24 22 -2 -5
STARTPROPERTIES 37
FONT "-bitstream-radio space-medium-r-normal--20-193-75-75-p-122-iso8859-1"
FOUNDRY "bitstream"
FAMILY_NAME "radio space"
WEIGHT_NAME "medium"
SLANT "r"
SETWIDTH_NAME "normal"
ADD_STYLE_NAME ""
PIXEL_SIZE 20
POINT_SIZE 193
RESOLUTION_X 75
RESOLUTION_Y 75
SPACING "p"
AVERAGE_WIDTH 122
CHARSET_REGISTRY "iso8859"
CHARSET_ENCODING "1"
RAW_PIXEL_SIZE 1000
RAW_POINT_SIZE 964
RAW_AVERAGE_WIDTH 13042
FONT_ASCENT 17
RAW_ASCENT 903
FONT_DESCENT 5
RAW_DESCENT 270
COPYRIGHT "2002 - Iconian Fonts: www.iconian.com"
FACE_NAME "Radio Space"
_ADOBE_POSTSCRIPT_FONTNAME "RadioSpace"
SUBSCRIPT_SIZE 12
SUBSCRIPT_X 0
SUBSCRIPT_Y -3
SUPERSCRIPT_SIZE 12
SUPERSCRIPT_X 0
SUPERSCRIPT_Y 4
UNDERLINE_THICKNESS 1
UNDERLINE_POSITION 2
ITALIC_ANGLE 5760
FONT_TYPE "TrueType"
RASTERIZER_NAME "FreeType"
DEFAULT_CHAR 0
ENDPROPERTIES
CHARS 191
STARTCHAR space
ENCODING 32
SWIDTH 353 0
DWIDTH 7 0
BBX 0 0 0 0
ATTRIBUTES 1b58
BITMAP
ENDCHAR
STARTCHAR exclam
ENCODING 33
SWIDTH 252 0
DWIDTH 5 0
BBX 2 12 2 0
ATTRIBUTES 1388
BITMAP
c0
c0
c0
c0
c0
c0
c0
00
00
00
c0
c0
ENDCHAR
STARTCHAR quotedbl
ENCODING 34
SWIDTH 404 0
DWIDTH 8 0
BBX 5 4 2 8
ATTRIBUTES 1f40
BITMAP
d8
d8
48
40
ENDCHAR
STARTCHAR numbersign
ENCODING 35
SWIDTH 757 0
DWIDTH 15 0
BBX 12 12 2 0
ATTRIBUTES 3a98
BITMAP
1980
1980
1980
fff0
fff0
0180
0180
fff0
fff0
1980
1980
1980
ENDCHAR
STARTCHAR dollar
ENCODING 36
SWIDTH 707 0
DWIDTH 14 0
BBX 11 12 2 0
ATTRIBUTES 36b0
BITMAP
7fe0
ffe0
cc00
cc00
cc00
ffc0
7fe0
0c60
0c60
0c60
ffe0
ffc0
ENDCHAR
STARTCHAR percent
ENCODING 37
SWIDTH 909 0
DWIDTH 18 0
BBX 15 12 2 0
ATTRIBUTES 4650
BITMAP
fc18
8430
8430
8460
84c0
85be
fda2
0322
0622
0e22
0c3e
183e
ENDCHAR
STARTCHAR ampersand
ENCODING 38
SWIDTH 656 0
DWIDTH 13 0
BBX 11 12 1 0
ATTRIBUTES 32c8
BITMAP
0600
0600
0600
0600
0600
ffe0
ffe0
ffe0
0660
0660
07e0
07e0
ENDCHAR
STARTCHAR apostrophe
ENCODING 39
SWIDTH 252 0
DWIDTH 5 0
BBX 2 4 2 8
ATTRIBUTES 1388
BITMAP
c0
c0
40
40
ENDCHAR
STARTCHAR parenleft
ENCODING 40
SWIDTH 454 0
DWIDTH 9 0
BBX 5 12 2 0
ATTRIBUTES 2328
BITMAP
78
f8
c0
c0
c0
c0
c0
c0
c0
c0
f8
78
ENDCHAR
STARTCHAR parenright
ENCODING 41
SWIDTH 404 0
DWIDTH 8 0
BBX 6 12 1 0
ATTRIBUTES 1f40
BITMAP
f8
fc
0c
0c
0c
0c
0c
0c
0c
0c
fc
f8
ENDCHAR
STARTCHAR asterisk
ENCODING 42
SWIDTH 505 0
DWIDTH 10 0
BBX 7 7 2 5
ATTRIBUTES 2710
BITMAP
10
10
94
fc
30
68
4c
ENDCHAR
STARTCHAR plus
ENCODING 43
SWIDTH 505 0
DWIDTH 10 0
BBX 7 7 2 3
ATTRIBUTES 2710
BITMAP
18
18
18
fe
fe
18
18
ENDCHAR
STARTCHAR comma
ENCODING 44
SWIDTH 252 0
DWIDTH 5 0
BBX 2 5 2 -3
ATTRIBUTES 1388
BITMAP
c0
c0
40
40
00
ENDCHAR
STARTCHAR minus
ENCODING 45
SWIDTH 505 0
DWIDTH 10 0
BBX 7 2 2 5
ATTRIBUTES 2710
BITMAP
fe
fe
ENDCHAR
STARTCHAR period
ENCODING 46
SWIDTH 252 0
DWIDTH 5 0
BBX 2 2 2 0
ATTRIBUTES 1388
BITMAP
c0
c0
ENDCHAR
STARTCHAR slash
ENCODING 47
SWIDTH 656 0
DWIDTH 13 0
BBX 10 12 2 0
ATTRIBUTES 32c8
BITMAP
00c0
0180
0180
0300
0600
0c00
0c00
1800
3000
6000
6000
c000
ENDCHAR
STARTCHAR 0
ENCODING 48
SWIDTH 707 0
DWIDTH 14 0
BBX 11 12 2 0
ATTRIBUTES 36b0
BITMAP
7fc0
ffe0
c060
c060
c060
c060
c060
c060
c060
c060
ffe0
7fc0
ENDCHAR
STARTCHAR 1
ENCODING 49
SWIDTH 252 0
DWIDTH 5 0
BBX 2 12 2 0
ATTRIBUTES 1388
BITMAP
c0
c0
c0
c0
c0
c0
c0
c0
c0
c0
c0
c0
ENDCHAR
STARTCHAR 2
ENCODING 50
SWIDTH 707 0
DWIDTH 14 0
BBX 11 12 2 0
ATTRIBUTES 36b0
BITMAP
ffc0
ffe0
0060
0060
0060
7fe0
ffc0
c000
c000
c000
ffe0
ffe0
ENDCHAR
STARTCHAR 3
ENCODING 51
SWIDTH 656 0
DWIDTH 13 0
BBX 11 12 1 0
ATTRIBUTES 32c8
BITMAP
ffc0
ffe0
0060
0060
0060
ffe0
ffe0
0060
0060
0060
ffe0
ffc0
ENDCHAR
STARTCHAR 4
ENCODING 52
SWIDTH 707 0
DWIDTH 14 0
BBX 11 12 2 0
ATTRIBUTES 36b0
BITMAP
c060
c060
c060
c060
c060
ffe0
7fe0
0060
0060
0060
0060
0060
ENDCHAR
STARTCHAR 5
ENCODING 53
SWIDTH 707 0
DWIDTH 14 0
BBX 11 12 2 0
ATTRIBUTES 36b0
BITMAP
ffe0
ffe0
c000
c000
c000
ffc0
7fe0
0060
0060
0060
ffe0
ffc0
ENDCHAR
STARTCHAR 6
ENCODING 54
SWIDTH 707 0
DWIDTH 14 0
BBX 11 12 2 0
ATTRIBUTES 36b0
BITMAP
7fe0
ffe0
c000
c000
c000
ffc0
ffe0
c060
c060
c060
ffe0
7fc0
ENDCHAR
STARTCHAR 7
ENCODING 55
SWIDTH 656 0
DWIDTH 13 0
BBX 11 12 1 0
ATTRIBUTES 32c8
BITMAP
ffc0
ffe0
0060
0060
0060
0060
0060
0060
0060
0060
0060
0060
ENDCHAR
STARTCHAR 8
ENCODING 56
SWIDTH 707 0
DWIDTH 14 0
BBX 11 12 2 0
ATTRIBUTES 36b0
BITMAP
7fc0
ffe0
c060
c060
c060
ffe0
ffe0
c060
c060
c060
ffe0
7fc0
ENDCHAR
STARTCHAR 9
ENCODING 57
SWIDTH 707 0
DWIDTH 14 0
BBX 11 12 2 0
ATTRIBUTES 36b0
BITMAP
7fc0
ffe0
c060
c060
c060
ffe0
7fe0
0060
0060
0060
ffe0
ffc0
ENDCHAR
STARTCHAR colon
ENCODING 58
SWIDTH 252 0
DWIDTH 5 0
BBX 2 6 2 0
ATTRIBUTES 1388
BITMAP
c0
c0
00
00
c0
c0
ENDCHAR
STARTCHAR semicolon
ENCODING 59
SWIDTH 252 0
DWIDTH 5 0
BBX 2 9 2 -3
ATTRIBUTES 1388
BITMAP
c0
c0
00
00
c0
c0
40
40
00
ENDCHAR
STARTCHAR less
ENCODING 60
SWIDTH 454 0
DWIDTH 9 0
BBX 5 12 2 0
ATTRIBUTES 2328
BITMAP
78
f8
c0
c0
c0
c0
c0
c0
c0
c0
f8
78
ENDCHAR
STARTCHAR equal
ENCODING 61
SWIDTH 505 0
DWIDTH 10 0
BBX 7 6 2 3
ATTRIBUTES 2710
BITMAP
fe
fe
00
00
fe
fe
ENDCHAR
STARTCHAR greater
ENCODING 62
SWIDTH 404 0
DWIDTH 8 0
BBX 6 12 1 0
ATTRIBUTES 1f40
BITMAP
f8
fc
0c
0c
0c
0c
0c
0c
0c
0c
fc
f8
ENDCHAR
STARTCHAR question
ENCODING 63
SWIDTH 707 0
DWIDTH 14 0
BBX 11 12 2 0
ATTRIBUTES 36b0
BITMAP
ffc0
ffe0
0060
0060
0060
7fe0
ffc0
c000
0000
0000
c000
c000
ENDCHAR
STARTCHAR at
ENCODING 64
SWIDTH 757 0
DWIDTH 15 0
BBX 12 11 2 1
ATTRIBUTES 3a98
BITMAP
7fe0
fff0
c030
fff0
fff0
f0f0
fff0
dff0
c030
fff0
7fe0
ENDCHAR
STARTCHAR A
ENCODING 65
SWIDTH 707 0
DWIDTH 14 0
BBX 11 12 2 0
ATTRIBUTES 36b0
BITMAP
7fc0
ffe0
0060
0060
0060
ffe0
ffe0
c060
c060
c060
c060
c060
ENDCHAR
STARTCHAR B
ENCODING 66
SWIDTH 707 0
DWIDTH 14 0
BBX 11 12 2 0
ATTRIBUTES 36b0
BITMAP
ffc0
ffe0
0060
0060
0060
ffe0
ffe0
c060
c060
c060
ffe0
ffc0
ENDCHAR
STARTCHAR C
ENCODING 67
SWIDTH 707 0
DWIDTH 14 0
BBX 11 12 2 0
ATTRIBUTES 36b0
BITMAP
7fe0
ffe0
c000
c000
c000
c000
c000
c000
c000
c000
ffe0
7fe0
ENDCHAR
STARTCHAR D
ENCODING 68
SWIDTH 707 0
DWIDTH 14 0
BBX 11 12 2 0
ATTRIBUTES 36b0
BITMAP
ffc0
ffe0
c060
c060
c060
c060
c060
c060
c060
c060
dfe0
dfc0
ENDCHAR
STARTCHAR E
ENCODING 69
SWIDTH 707 0
DWIDTH 14 0
BBX 11 12 2 0
ATTRIBUTES 36b0
BITMAP
7fe0
ffe0
c000
c000
c000
ffe0
ffe0
c000
c000
c000
ffe0
7fe0
ENDCHAR
STARTCHAR F
ENCODING 70
SWIDTH 707 0
DWIDTH 14 0
BBX 11 12 2 0
ATTRIBUTES 36b0
BITMAP
7fe0
ffe0
c000
c000
c000
ffe0
ffe0
c000
c000
c000
c000
c000
ENDCHAR
STARTCHAR G
ENCODING 71
SWIDTH 707 0
DWIDTH 14 0
BBX 11 12 2 0
ATTRIBUTES 36b0
BITMAP
7fe0
ffe0
c000
c000
c000
c000
c060
c060
c060
c060
ffe0
7fc0
ENDCHAR
STARTCHAR H
ENCODING 72
SWIDTH 707 0
DWIDTH 14 0
BBX 11 12 2 0
ATTRIBUTES 36b0
BITMAP
c060
c060
c060
c060
c060
ffe0
ffe0
c060
c060
c060
c060
c060
ENDCHAR
STARTCHAR I
ENCODING 73
SWIDTH 252 0
DWIDTH 5 0
BBX 2 12 2 0
ATTRIBUTES 1388
BITMAP
c0
c0
c0
c0
c0
c0
c0
c0
c0
c0
c0
c0
ENDCHAR
STARTCHAR J
ENCODING 74
SWIDTH 656 0
DWIDTH 13 0
BBX 11 12 1 0
ATTRIBUTES 32c8
BITMAP
0060
0060
0060
0060
0060
0060
0060
0060
0060
0060
ffe0
ffc0
ENDCHAR
STARTCHAR K
ENCODING 75
SWIDTH 707 0
DWIDTH 14 0
BBX 11 12 2 0
ATTRIBUTES 36b0
BITMAP
c3e0
c7e0
c600
c600
c600
ffc0
ffe0
c060
c060
c060
c060
c060
ENDCHAR
STARTCHAR L
ENCODING 76
SWIDTH 707 0
DWIDTH 14 0
BBX 11 12 2 0
ATTRIBUTES 36b0
BITMAP
c000
c000
c000
c000
c000
c000
c000
c000
c000
c000
ffe0
7fe0
ENDCHAR
STARTCHAR M
ENCODING 77
SWIDTH 757 0
DWIDTH 15 0
BBX 12 12 2 0
ATTRIBUTES 3a98
BITMAP
7fe0
fff0
c030
c630
c630
c630
c630
c630
c630
c630
c630
c630
ENDCHAR
STARTCHAR N
ENCODING 78
SWIDTH 707 0
DWIDTH 14 0
BBX 11 12 2 0
ATTRIBUTES 36b0
BITMAP
7fc0
ffe0
c060
c060
c060
c060
c060
c060
c060
c060
c060
c060
ENDCHAR
STARTCHAR O
ENCODING 79
SWIDTH 707 0
DWIDTH 14 0
BBX 11 12 2 0
ATTRIBUTES 36b0
BITMAP
7fc0
ffe0
c060
c060
c060
c060
c060
c060
c060
c060
ffe0
7fc0
ENDCHAR
STARTCHAR P
ENCODING 80
SWIDTH 707 0
DWIDTH 14 0
BBX 11 12 2 0
ATTRIBUTES 36b0
BITMAP
ffc0
ffe0
0060
0060
0060
ffe0
ffc0
c000
c000
c000
c000
c000
ENDCHAR
STARTCHAR Q
ENCODING 81
SWIDTH 707 0
DWIDTH 14 0
BBX 11 12 2 0
ATTRIBUTES 36b0
BITMAP
7fc0
ffe0
c060
c060
c060
c060
cc60
cc60
cc60
cc60
cfe0
c7c0
ENDCHAR
STARTCHAR R
ENCODING 82
SWIDTH 707 0
DWIDTH 14 0
BBX 11 12 2 0
ATTRIBUTES 36b0
BITMAP
ffc0
ffe0
0060
0060
0060
ffe0
ffc0
c600
c600
c600
c7e0
c3e0
ENDCHAR
STARTCHAR S
ENCODING 83
SWIDTH 707 0
DWIDTH 14 0
BBX 11 12 2 0
ATTRIBUTES 36b0
BITMAP
7fe0
ffe0
c000
c000
c000
ffc0
7fe0
0060
0060
0060
ffe0
ffc0
ENDCHAR
STARTCHAR T
ENCODING 84
SWIDTH 707 0
DWIDTH 14 0
BBX 11 12 2 0
ATTRIBUTES 36b0
BITMAP
ffe0
ffe0
0000
0c00
0c00
0c00
0c00
0c00
0c00
0c00
0c00
0c00
ENDCHAR
STARTCHAR U
ENCODING 85
SWIDTH 707 0
DWIDTH 14 0
BBX 11 12 2 0
ATTRIBUTES 36b0
BITMAP
c060
c060
c060
c060
c060
c060
c060
c060
c060
c060
ffe0
7fc0
ENDCHAR
STARTCHAR V
ENCODING 86
SWIDTH 707 0
DWIDTH 14 0
BBX 11 12 2 0
ATTRIBUTES 36b0
BITMAP
c060
c060
c060
c0e0
60c0
60c0
3180
3180
1b00
1b00
0e00
0e00
ENDCHAR
STARTCHAR W
ENCODING 87
SWIDTH 757 0
DWIDTH 15 0
BBX 12 12 2 0
ATTRIBUTES 3a98
BITMAP
c630
c630
c630
c630
c630
c630
c630
c630
c630
c030
fff0
7fe0
ENDCHAR
STARTCHAR X
ENCODING 88
SWIDTH 757 0
DWIDTH 15 0
BBX 13 12 1 0
ATTRIBUTES 3a98
BITMAP
f8f8
fdf8
0d80
0d80
0d80
0d80
0d80
0d80
0d80
0d80
fdf8
f8f8
ENDCHAR
STARTCHAR Y
ENCODING 89
SWIDTH 707 0
DWIDTH 14 0
BBX 11 12 2 0
ATTRIBUTES 36b0
BITMAP
c060
c060
c060
c060
c060
ffe0
7fe0
0060
0060
0060
ffe0
ffc0
ENDCHAR
STARTCHAR Z
ENCODING 90
SWIDTH 707 0
DWIDTH 14 0
BBX 11 12 2 0
ATTRIBUTES 36b0
BITMAP
ffe0
ffe0
00e0
01c0
0380
0700
0e00
1c00
3800
7000
ffe0
ffe0
ENDCHAR
STARTCHAR bracketleft
ENCODING 91
SWIDTH 454 0
DWIDTH 9 0
BBX 5 12 2 0
ATTRIBUTES 2328
BITMAP
78
f8
c0
c0
c0
c0
c0
c0
c0
c0
f8
78
ENDCHAR
STARTCHAR backslash
ENCODING 92
SWIDTH 656 0
DWIDTH 13 0
BBX 10 12 2 0
ATTRIBUTES 32c8
BITMAP
c000
6000
6000
3000
1800
0c00
0c00
0600
0300
0180
0180
00c0
ENDCHAR
STARTCHAR bracketright
ENCODING 93
SWIDTH 404 0
DWIDTH 8 0
BBX 6 12 1 0
ATTRIBUTES 1f40
BITMAP
f8
fc
0c
0c
0c
0c
0c
0c
0c
0c
fc
f8
ENDCHAR
STARTCHAR asciicircum
ENCODING 94
SWIDTH 404 0
DWIDTH 8 0
BBX 0 0 0 0
ATTRIBUTES 1f40
BITMAP
ENDCHAR
STARTCHAR underscore
ENCODING 95
SWIDTH 555 0
DWIDTH 11 0
BBX 11 2 0 -3
ATTRIBUTES 2af8
BITMAP
ffe0
ffe0
ENDCHAR
STARTCHAR grave
ENCODING 96
SWIDTH 303 0
DWIDTH 6 0
BBX 3 4 2 8
ATTRIBUTES 1770
BITMAP
c0
c0
60
20
ENDCHAR
STARTCHAR a
ENCODING 97
SWIDTH 707 0
DWIDTH 14 0
BBX 11 7 2 0
ATTRIBUTES 36b0
BITMAP
7fe0
ffe0
c060
c060
c060
fe60
7e60
ENDCHAR
STARTCHAR b
ENCODING 98
SWIDTH 707 0
DWIDTH 14 0
BBX 11 12 2 0
ATTRIBUTES 36b0
BITMAP
c000
c000
c000
c000
c000
ffc0
ffe0
0060
0060
0060
ffe0
ffc0
ENDCHAR
STARTCHAR c
ENCODING 99
SWIDTH 707 0
DWIDTH 14 0
BBX 11 7 2 0
ATTRIBUTES 36b0
BITMAP
7fe0
ffe0
c000
c000
c000
ffe0
7fe0
ENDCHAR
STARTCHAR d
ENCODING 100
SWIDTH 707 0
DWIDTH 14 0
BBX 11 12 2 0
ATTRIBUTES 36b0
BITMAP
0060
0060
0060
0060
0060
7fe0
ffe0
c000
c000
c000
ffe0
7fe0
ENDCHAR
STARTCHAR e
ENCODING 101
SWIDTH 707 0
DWIDTH 14 0
BBX 11 7 2 0
ATTRIBUTES 36b0
BITMAP
7fc0
ffe0
c3c0
c700
c000
ffe0
7fe0
ENDCHAR
STARTCHAR f
ENCODING 102
SWIDTH 707 0
DWIDTH 14 0
BBX 11 12 2 -5
ATTRIBUTES 36b0
BITMAP
7fe0
ffe0
0000
0000
0000
ffe0
ffe0
c000
c000
c000
c000
c000
ENDCHAR
STARTCHAR g
ENCODING 103
SWIDTH 707 0
DWIDTH 14 0
BBX 11 12 2 -5
ATTRIBUTES 36b0
BITMAP
7fe0
ffe0
c000
c000
c000
ffe0
7fe0
0060
0060
0060
0060
0060
ENDCHAR
STARTCHAR h
ENCODING 104
SWIDTH 707 0
DWIDTH 14 0
BBX 11 12 2 0
ATTRIBUTES 36b0
BITMAP
c000
c000
c000
c000
c000
ffc0
ffe0
c060
c060
c060
c060
c060
ENDCHAR
STARTCHAR i
ENCODING 105
SWIDTH 252 0
DWIDTH 5 0
BBX 2 12 2 0
ATTRIBUTES 1388
BITMAP
c0
c0
00
00
00
c0
c0
c0
c0
c0
c0
c0
ENDCHAR
STARTCHAR j
ENCODING 106
SWIDTH 252 0
DWIDTH 5 0
BBX 6 17 -2 -5
ATTRIBUTES 1388
BITMAP
0c
0c
00
00
00
0c
0c
0c
0c
0c
0c
0c
0c
0c
0c
fc
f8
ENDCHAR
STARTCHAR k
ENCODING 107
SWIDTH 707 0
DWIDTH 14 0
BBX 11 12 2 0
ATTRIBUTES 36b0
BITMAP
c000
c000
c600
c600
c600
ffc0
ffe0
c060
c060
c060
c060
c060
ENDCHAR
STARTCHAR l
ENCODING 108
SWIDTH 252 0
DWIDTH 5 0
BBX 2 12 2 0
ATTRIBUTES 1388
BITMAP
c0
c0
c0
c0
c0
c0
c0
c0
c0
c0
c0
c0
ENDCHAR
STARTCHAR m
ENCODING 109
SWIDTH 757 0
DWIDTH 15 0
BBX 12 7 2 0
ATTRIBUTES 3a98
BITMAP
7fe0
fff0
c030
c630
c630
c630
c630
ENDCHAR
STARTCHAR n
ENCODING 110
SWIDTH 707 0
DWIDTH 14 0
BBX 11 7 2 0
ATTRIBUTES 36b0
BITMAP
7fc0
ffe0
c060
c060
c060
c060
c060
ENDCHAR
STARTCHAR o
ENCODING 111
SWIDTH 707 0
DWIDTH 14 0
BBX 11 7 2 0
ATTRIBUTES 36b0
BITMAP
7fc0
ffe0
c060
c060
c060
ffe0
7fc0
ENDCHAR
STARTCHAR p
ENCODING 112
SWIDTH 707 0
DWIDTH 14 0
BBX 11 12 2 -5
ATTRIBUTES 36b0
BITMAP
ffc0
ffe0
0060
0060
0060
ffe0
ffc0
c000
c000
c000
c000
c000
ENDCHAR
STARTCHAR q
ENCODING 113
SWIDTH 707 0
DWIDTH 14 0
BBX 13 12 2 -5
ATTRIBUTES 36b0
BITMAP
7fe0
ffe0
c000
c000
c000
ffe0
7fe0
0060
0060
0060
0078
0078
ENDCHAR
STARTCHAR r
ENCODING 114
SWIDTH 707 0
DWIDTH 14 0
BBX 11 7 2 0
ATTRIBUTES 36b0
BITMAP
7fe0
ffe0
c000
c000
c000
c000
c000
ENDCHAR
STARTCHAR s
ENCODING 115
SWIDTH 707 0
DWIDTH 14 0
BBX 11 7 2 0
ATTRIBUTES 36b0
BITMAP
7fe0
ffe0
7800
0e00
0380
ffe0
ffc0
ENDCHAR
STARTCHAR t
ENCODING 116
SWIDTH 707 0
DWIDTH 14 0
BBX 11 12 2 0
ATTRIBUTES 36b0
BITMAP
c000
c000
c000
c000
c000
ffe0
ffe0
c000
c000
c000
ffe0
7fe0
ENDCHAR
STARTCHAR u
ENCODING 117
SWIDTH 707 0
DWIDTH 14 0
BBX 11 7 2 0
ATTRIBUTES 36b0
BITMAP
c060
c060
c060
c060
c060
ffe0
7fc0
ENDCHAR
STARTCHAR v
ENCODING 118
SWIDTH 707 0
DWIDTH 14 0
BBX 11 7 2 0
ATTRIBUTES 36b0
BITMAP
c060
c060
c060
60c0
3b80
1f00
0e00
ENDCHAR
STARTCHAR w
ENCODING 119
SWIDTH 757 0
DWIDTH 15 0
BBX 12 7 2 0
ATTRIBUTES 3a98
BITMAP
c630
c630
c630
c630
c030
fff0
7fe0
ENDCHAR
STARTCHAR x
ENCODING 120
SWIDTH 707 0
DWIDTH 14 0
BBX 11 7 2 0
ATTRIBUTES 36b0
BITMAP
e0e0
e1e0
7880
1e00
6780
e1e0
e0e0
ENDCHAR
STARTCHAR y
ENCODING 121
SWIDTH 707 0
DWIDTH 14 0
BBX 11 12 2 -5
ATTRIBUTES 36b0
BITMAP
c060
c060
c060
c060
c060
ffe0
7fe0
0060
0060
0060
0060
0060
ENDCHAR
STARTCHAR z
ENCODING 122
SWIDTH 707 0
DWIDTH 14 0
BBX 11 7 2 0
ATTRIBUTES 36b0
BITMAP
ffe0
ffe0
0380
0e00
7800
ffe0
ffe0
ENDCHAR
STARTCHAR braceleft
ENCODING 123
SWIDTH 454 0
DWIDTH 9 0
BBX 5 12 2 0
ATTRIBUTES 2328
BITMAP
78
f8
c0
c0
c0
c0
c0
c0
c0
c0
f8
78
ENDCHAR
STARTCHAR bar
ENCODING 124
SWIDTH 252 0
DWIDTH 5 0
BBX 2 12 2 0
ATTRIBUTES 1388
BITMAP
c0
c0
c0
c0
c0
c0
c0
c0
c0
c0
c0
c0
ENDCHAR
STARTCHAR braceright
ENCODING 125
SWIDTH 404 0
DWIDTH 8 0
BBX 6 12 1 0
ATTRIBUTES 1f40
BITMAP
f8
fc
0c
0c
0c
0c
0c
0c
0c
0c
fc
f8
ENDCHAR
STARTCHAR asciitilde
ENCODING 126
SWIDTH 505 0
DWIDTH 10 0
BBX 7 4 2 3
ATTRIBUTES 2710
BITMAP
06
3e
fc
c0
ENDCHAR
STARTCHAR nobreakspace
ENCODING 160
SWIDTH 757 0
DWIDTH 15 0
BBX 0 0 0 0
ATTRIBUTES 3a98
BITMAP
ENDCHAR
STARTCHAR exclamdown
ENCODING 161
SWIDTH 252 0
DWIDTH 5 0
BBX 2 12 2 0
ATTRIBUTES 1388
BITMAP
c0
c0
00
00
00
c0
c0
c0
c0
c0
c0
c0
ENDCHAR
STARTCHAR cent
ENCODING 162
SWIDTH 707 0
DWIDTH 14 0
BBX 11 12 2 0
ATTRIBUTES 36b0
BITMAP
0600
0600
7fe0
ffe0
c600
c600
c600
c600
ffe0
7fe0
0600
0600
ENDCHAR
STARTCHAR sterling
ENCODING 163
SWIDTH 606 0
DWIDTH 12 0
BBX 10 17 1 -3
ATTRIBUTES 2ee0
BITMAP
ffc0
8040
8040
8040
8040
8040
8040
8040
8040
8040
8040
8040
8040
8040
8040
8040
ffc0
ENDCHAR
STARTCHAR currency
ENCODING 164
SWIDTH 707 0
DWIDTH 14 0
BBX 10 10 2 1
ATTRIBUTES 36b0
BITMAP
c0c0
ffc0
7f80
6180
6180
6180
6180
7f80
ffc0
c0c0
ENDCHAR
STARTCHAR yen
ENCODING 165
SWIDTH 808 0
DWIDTH 16 0
BBX 13 12 2 0
ATTRIBUTES 3e80
BITMAP
c060
c060
c3f8
c3f8
c060
ffe0
7fe0
03f8
03f8
0060
ffe0
ffc0
ENDCHAR
STARTCHAR brokenbar
ENCODING 166
SWIDTH 505 0
DWIDTH 10 0
BBX 2 17 4 -3
ATTRIBUTES 2710
BITMAP
c0
c0
c0
c0
c0
c0
c0
00
00
00
c0
c0
c0
c0
c0
c0
c0
ENDCHAR
STARTCHAR section
ENCODING 167
SWIDTH 707 0
DWIDTH 14 0
BBX 11 12 2 0
ATTRIBUTES 36b0
BITMAP
7fe0
ffe0
ffc0
ffe0
c060
c060
c060
ffe0
7fe0
0060
ffe0
ffc0
ENDCHAR
STARTCHAR diaeresis
ENCODING 168
SWIDTH 404 0
DWIDTH 8 0
BBX 5 2 2 13
ATTRIBUTES 1f40
BITMAP
d8
d8
ENDCHAR
STARTCHAR copyright
ENCODING 169
SWIDTH 757 0
DWIDTH 15 0
BBX 12 11 2 1
ATTRIBUTES 3a98
BITMAP
7fe0
fff0
c030
c030
dfb0
d030
d030
dfb0
c030
fff0
7fe0
ENDCHAR
STARTCHAR ordfeminine
ENCODING 170
SWIDTH 404 0
DWIDTH 8 0
BBX 6 7 1 5
ATTRIBUTES 1f40
BITMAP
fc
04
04
fc
84
84
84
ENDCHAR
STARTCHAR guillemotleft
ENCODING 171
SWIDTH 555 0
DWIDTH 11 0
BBX 9 5 1 2
ATTRIBUTES 2af8
BITMAP
1180
3380
6600
3300
1180
ENDCHAR
STARTCHAR notsign
ENCODING 172
SWIDTH 505 0
DWIDTH 10 0
BBX 7 4 2 3
ATTRIBUTES 2710
BITMAP
fe
fe
06
06
ENDCHAR
STARTCHAR hyphen
ENCODING 173
SWIDTH 505 0
DWIDTH 10 0
BBX 7 2 2 5
ATTRIBUTES 2710
BITMAP
fe
fe
ENDCHAR
STARTCHAR registered
ENCODING 174
SWIDTH 757 0
DWIDTH 15 0
BBX 12 11 2 1
ATTRIBUTES 3a98
BITMAP
7fe0
fff0
c030
c030
dfb0
d030
d030
d030
c030
fff0
7fe0
ENDCHAR
STARTCHAR macron
ENCODING 175
SWIDTH 454 0
DWIDTH 9 0
BBX 5 2 2 10
ATTRIBUTES 2328
BITMAP
f8
f8
ENDCHAR
STARTCHAR degree
ENCODING 176
SWIDTH 404 0
DWIDTH 8 0
BBX 6 6 1 6
ATTRIBUTES 1f40
BITMAP
fc
84
84
84
84
fc
ENDCHAR
STARTCHAR plusminus
ENCODING 177
SWIDTH 505 0
DWIDTH 10 0
BBX 7 10 2 0
ATTRIBUTES 2710
BITMAP
18
18
18
fe
fe
18
18
00
fe
fe
ENDCHAR
STARTCHAR twosuperior
ENCODING 178
SWIDTH 404 0
DWIDTH 8 0
BBX 6 7 1 5
ATTRIBUTES 1f40
BITMAP
fc
04
04
fc
80
80
fc
ENDCHAR
STARTCHAR threesuperior
ENCODING 179
SWIDTH 353 0
DWIDTH 7 0
BBX 6 6 1 6
ATTRIBUTES 1b58
BITMAP
fc
04
fc
04
04
fc
ENDCHAR
STARTCHAR acute
ENCODING 180
SWIDTH 303 0
DWIDTH 6 0
BBX 3 4 2 8
ATTRIBUTES 1770
BITMAP
60
60
40
80
ENDCHAR
STARTCHAR mu
ENCODING 181
SWIDTH 808 0
DWIDTH 16 0
BBX 13 10 2 -3
ATTRIBUTES 3e80
BITMAP
c060
c060
c060
c060
c060
fff8
fff8
c000
c000
c000
ENDCHAR
STARTCHAR paragraph
ENCODING 182
SWIDTH 707 0
DWIDTH 14 0
BBX 11 12 2 0
ATTRIBUTES 36b0
BITMAP
ffc0
ffe0
fc60
fc60
fc60
fc60
7c60
0c60
0c60
0c60
0c60
0c60
ENDCHAR
STARTCHAR periodcentered
ENCODING 183
SWIDTH 252 0
DWIDTH 5 0
BBX 2 2 2 4
ATTRIBUTES 1388
BITMAP
c0
c0
ENDCHAR
STARTCHAR cedilla
ENCODING 184
SWIDTH 202 0
DWIDTH 4 0
BBX 2 3 1 -3
ATTRIBUTES 0fa0
BITMAP
80
c0
c0
ENDCHAR
STARTCHAR onesuperior
ENCODING 185
SWIDTH 151 0
DWIDTH 3 0
BBX 1 7 1 5
ATTRIBUTES 0bb8
BITMAP
80
80
80
80
80
80
80
ENDCHAR
STARTCHAR masculine
ENCODING 186
SWIDTH 404 0
DWIDTH 8 0
BBX 6 6 1 6
ATTRIBUTES 1f40
BITMAP
fc
84
84
84
84
fc
ENDCHAR
STARTCHAR guillemotright
ENCODING 187
SWIDTH 555 0
DWIDTH 11 0
BBX 9 5 1 2
ATTRIBUTES 2af8
BITMAP
4600
6700
3980
6300
4600
ENDCHAR
STARTCHAR onequarter
ENCODING 188
SWIDTH 808 0
DWIDTH 16 0
BBX 14 12 1 0
ATTRIBUTES 3e80
BITMAP
4060
40c0
4180
4300
4300
4684
4c84
1884
18fc
3004
6004
4004
ENDCHAR
STARTCHAR onehalf
ENCODING 189
SWIDTH 808 0
DWIDTH 16 0
BBX 14 12 1 0
ATTRIBUTES 3e80
BITMAP
4060
40c0
4180
4300
4300
46fc
4c04
1804
18fc
3080
6080
40fc
ENDCHAR
STARTCHAR threequarters
ENCODING 190
SWIDTH 1010 0
DWIDTH 20 0
BBX 17 12 2 0
ATTRIBUTES 4e20
BITMAP
fc0c00
041800
043000
fc6000
046000
04d080
fd9080
031080
031f80
060080
0c0080
180080
ENDCHAR
STARTCHAR questiondown
ENCODING 191
SWIDTH 707 0
DWIDTH 14 0
BBX 11 12 2 0
ATTRIBUTES 36b0
BITMAP
0060
0060
0000
0000
0060
7fe0
ffc0
c000
c000
c000
ffe0
7fe0
ENDCHAR
STARTCHAR Agrave
ENCODING 192
SWIDTH 707 0
DWIDTH 14 0
BBX 11 16 2 0
ATTRIBUTES 36b0
BITMAP
0c00
0c00
0200
0000
7fc0
ffe0
0060
0060
0060
ffe0
ffe0
c060
c060
c060
c060
c060
ENDCHAR
STARTCHAR Aacute
ENCODING 193
SWIDTH 707 0
DWIDTH 14 0
BBX 11 16 2 0
ATTRIBUTES 36b0
BITMAP
0600
0e00
0800
0000
7fc0
ffe0
0060
0060
0060
ffe0
ffe0
c060
c060
c060
c060
c060
ENDCHAR
STARTCHAR Acircumflex
ENCODING 194
SWIDTH 707 0
DWIDTH 14 0
BBX 11 17 2 0
ATTRIBUTES 36b0
BITMAP
0400
0e00
0f00
1b00
0000
7fc0
ffe0
0060
0060
0060
ffe0
ffe0
c060
c060
c060
c060
c060
ENDCHAR
STARTCHAR Atilde
ENCODING 195
SWIDTH 707 0
DWIDTH 14 0
BBX 11 17 2 0
ATTRIBUTES 36b0
BITMAP
0180
1f80
3e00
3000
0000
7fc0
ffe0
0060
0060
0060
ffe0
ffe0
c060
c060
c060
c060
c060
ENDCHAR
STARTCHAR Adiaeresis
ENCODING 196
SWIDTH 707 0
DWIDTH 14 0
BBX 11 15 2 0
ATTRIBUTES 36b0
BITMAP
1b00
1b00
0000
7fc0
ffe0
0060
0060
0060
ffe0
ffe0
c060
c060
c060
c060
c060
ENDCHAR
STARTCHAR Aring
ENCODING 197
SWIDTH 707 0
DWIDTH 14 0
BBX 11 16 2 0
ATTRIBUTES 36b0
BITMAP
0e00
0a00
0e00
0000
7fc0
ffe0
0060
0060
0060
ffe0
ffe0
c060
c060
c060
c060
c060
ENDCHAR
STARTCHAR AE
ENCODING 198
SWIDTH 1162 0
DWIDTH 23 0
BBX 20 12 2 0
ATTRIBUTES 59d8
BITMAP
7ffff0
fffff0
006000
006000
006000
fffff0
fffff0
c06000
c06000
c06000
c07ff0
c07ff0
ENDCHAR
STARTCHAR Ccedilla
ENCODING 199
SWIDTH 707 0
DWIDTH 14 0
BBX 11 15 2 -3
ATTRIBUTES 36b0
BITMAP
7fe0
ffe0
c000
c000
c000
c000
c000
c000
c000
c000
ffe0
7fe0
0400
0600
0600
ENDCHAR
STARTCHAR Egrave
ENCODING 200
SWIDTH 707 0
DWIDTH 14 0
BBX 11 16 2 0
ATTRIBUTES 36b0
BITMAP
0c00
0c00
0200
0000
7fe0
ffe0
c000
c000
c000
ffe0
ffe0
c000
c000
c000
ffe0
7fe0
ENDCHAR
STARTCHAR Eacute
ENCODING 201
SWIDTH 707 0
DWIDTH 14 0
BBX 11 16 2 0
ATTRIBUTES 36b0
BITMAP
0600
0600
0000
0000
7fe0
ffe0
c000
c000
c000
ffe0
ffe0
c000
c000
c000
ffe0
7fe0
ENDCHAR
STARTCHAR Ecircumflex
ENCODING 202
SWIDTH 707 0
DWIDTH 14 0
BBX 11 17 2 0
ATTRIBUTES 36b0
BITMAP
0400
0e00
0e00
1b00
0000
7fe0
ffe0
c000
c000
c000
ffe0
ffe0
c000
c000
c000
ffe0
7fe0
ENDCHAR
STARTCHAR Ediaeresis
ENCODING 203
SWIDTH 707 0
DWIDTH 14 0
BBX 11 15 2 0
ATTRIBUTES 36b0
BITMAP
1b00
1b00
0000
7fe0
ffe0
c000
c000
c000
ffe0
ffe0
c000
c000
c000
ffe0
7fe0
ENDCHAR
STARTCHAR Igrave
ENCODING 204
SWIDTH 252 0
DWIDTH 5 0
BBX 3 16 2 0
ATTRIBUTES 1388
BITMAP
c0
c0
00
00
c0
c0
c0
c0
c0
c0
c0
c0
c0
c0
c0
c0
ENDCHAR
STARTCHAR Iacute
ENCODING 205
SWIDTH 252 0
DWIDTH 5 0
BBX 2 16 2 0
ATTRIBUTES 1388
BITMAP
c0
c0
80
00
c0
c0
c0
c0
c0
c0
c0
c0
c0
c0
c0
c0
ENDCHAR
STARTCHAR Icircumflex
ENCODING 206
SWIDTH 252 0
DWIDTH 5 0
BBX 6 17 0 0
ATTRIBUTES 1388
BITMAP
00
30
78
4c
00
30
30
30
30
30
30
30
30
30
30
30
30
ENDCHAR
STARTCHAR Idiaeresis
ENCODING 207
SWIDTH 252 0
DWIDTH 5 0
BBX 5 15 0 0
ATTRIBUTES 1388
BITMAP
d8
d8
00
30
30
30
30
30
30
30
30
30
30
30
30
ENDCHAR
STARTCHAR ETH
ENCODING 208
SWIDTH 808 0
DWIDTH 16 0
BBX 13 12 2 0
ATTRIBUTES 3e80
BITMAP
1ff0
1ff8
1818
1818
1818
fe18
fe18
1818
1818
1818
1ff8
1ff0
ENDCHAR
STARTCHAR Ntilde
ENCODING 209
SWIDTH 707 0
DWIDTH 14 0
BBX 11 17 2 0
ATTRIBUTES 36b0
BITMAP
0180
1f80
3e00
3000
0000
7fc0
ffe0
c060
c060
c060
c060
c060
c060
c060
c060
c060
c060
ENDCHAR
STARTCHAR Ograve
ENCODING 210
SWIDTH 707 0
DWIDTH 14 0
BBX 11 16 2 0
ATTRIBUTES 36b0
BITMAP
0c00
0c00
0200
0000
7fc0
ffe0
c060
c060
c060
c060
c060
c060
c060
c060
ffe0
7fc0
ENDCHAR
STARTCHAR Oacute
ENCODING 211
SWIDTH 707 0
DWIDTH 14 0
BBX 11 16 2 0
ATTRIBUTES 36b0
BITMAP
0600
0600
0800
0000
7fc0
ffe0
c060
c060
c060
c060
c060
c060
c060
c060
ffe0
7fc0
ENDCHAR
STARTCHAR Ocircumflex
ENCODING 212
SWIDTH 707 0
DWIDTH 14 0
BBX 11 17 2 0
ATTRIBUTES 36b0
BITMAP
0400
0e00
1f00
1b00
0000
7fc0
ffe0
c060
c060
c060
c060
c060
c060
c060
c060
ffe0
7fc0
ENDCHAR
STARTCHAR Otilde
ENCODING 213
SWIDTH 707 0
DWIDTH 14 0
BBX 11 17 2 0
ATTRIBUTES 36b0
BITMAP
0180
1f80
3e00
3000
0000
7fc0
ffe0
c060
c060
c060
c060
c060
c060
c060
c060
ffe0
7fc0
ENDCHAR
STARTCHAR Odiaeresis
ENCODING 214
SWIDTH 707 0
DWIDTH 14 0
BBX 11 15 2 0
ATTRIBUTES 36b0
BITMAP
1b00
1b00
0000
7fc0
ffe0
c060
c060
c060
c060
c060
c060
c060
c060
ffe0
7fc0
ENDCHAR
STARTCHAR multiply
ENCODING 215
SWIDTH 707 0
DWIDTH 14 0
BBX 11 7 2 0
ATTRIBUTES 36b0
BITMAP
e0e0
e1e0
2780
1e00
7880
f1e0
e0e0
ENDCHAR
STARTCHAR Ooblique
ENCODING 216
SWIDTH 707 0
DWIDTH 14 0
BBX 11 12 2 0
ATTRIBUTES 36b0
BITMAP
7fe0
ffe0
c1e0
c360
c360
c660
cc60
d860
d860
f060
ffe0
ffc0
ENDCHAR
STARTCHAR Ugrave
ENCODING 217
SWIDTH 707 0
DWIDTH 14 0
BBX 11 16 2 0
ATTRIBUTES 36b0
BITMAP
0c00
0c00
0200
0000
c060
c060
c060
c060
c060
c060
c060
c060
c060
c060
ffe0
7fc0
ENDCHAR
STARTCHAR Uacute
ENCODING 218
SWIDTH 707 0
DWIDTH 14 0
BBX 11 16 2 0
ATTRIBUTES 36b0
BITMAP
0600
0600
0800
0000
c060
c060
c060
c060
c060
c060
c060
c060
c060
c060
ffe0
7fc0
ENDCHAR
STARTCHAR Ucircumflex
ENCODING 219
SWIDTH 707 0
DWIDTH 14 0
BBX 11 17 2 0
ATTRIBUTES 36b0
BITMAP
0400
0e00
1e00
1b00
0000
c060
c060
c060
c060
c060
c060
c060
c060
c060
c060
ffe0
7fc0
ENDCHAR
STARTCHAR Udiaeresis
ENCODING 220
SWIDTH 707 0
DWIDTH 14 0
BBX 11 15 2 0
ATTRIBUTES 36b0
BITMAP
1b00
1b00
0000
c060
c060
c060
c060
c060
c060
c060
c060
c060
c060
ffe0
7fc0
ENDCHAR
STARTCHAR Yacute
ENCODING 221
SWIDTH 707 0
DWIDTH 14 0
BBX 11 16 2 0
ATTRIBUTES 36b0
BITMAP
0600
0600
0000
0000
c060
c060
c060
c060
c060
ffe0
7fe0
0060
0060
0060
ffe0
ffc0
ENDCHAR
STARTCHAR THORN
ENCODING 222
SWIDTH 707 0
DWIDTH 14 0
BBX 11 12 2 0
ATTRIBUTES 36b0
BITMAP
c000
c000
c000
ffc0
ffe0
0060
0060
0060
ffe0
ffc0
c000
c000
ENDCHAR
STARTCHAR ssharp
ENCODING 223
SWIDTH 707 0
DWIDTH 14 0
BBX 11 13 2 -1
ATTRIBUTES 36b0
BITMAP
ffc0
ffe0
0060
0060
0060
ffe0
ffe0
c060
c060
c060
c7e0
c7c0
c000
ENDCHAR
STARTCHAR agrave
ENCODING 224
SWIDTH 707 0
DWIDTH 14 0
BBX 11 12 2 0
ATTRIBUTES 36b0
BITMAP
0c00
0c00
0200
0000
0000
7fe0
ffe0
c060
c060
c060
fe60
7e60
ENDCHAR
STARTCHAR aacute
ENCODING 225
SWIDTH 707 0
DWIDTH 14 0
BBX 11 12 2 0
ATTRIBUTES 36b0
BITMAP
0600
0e00
0800
0000
0000
7fe0
ffe0
c060
c060
c060
fe60
7e60
ENDCHAR
STARTCHAR acircumflex
ENCODING 226
SWIDTH 707 0
DWIDTH 14 0
BBX 11 12 2 0
ATTRIBUTES 36b0
BITMAP
0400
0e00
1b00
0000
0000
7fe0
ffe0
c060
c060
c060
fe60
7e60
ENDCHAR
STARTCHAR atilde
ENCODING 227
SWIDTH 707 0
DWIDTH 14 0
BBX 11 12 2 0
ATTRIBUTES 36b0
BITMAP
0180
1f80
3e00
3000
0000
7fe0
ffe0
c060
c060
c060
fe60
7e60
ENDCHAR
STARTCHAR adiaeresis
ENCODING 228
SWIDTH 707 0
DWIDTH 14 0
BBX 11 11 2 0
ATTRIBUTES 36b0
BITMAP
1b00
1b00
0000
0000
7fe0
ffe0
c060
c060
c060
fe60
7e60
ENDCHAR
STARTCHAR aring
ENCODING 229
SWIDTH 707 0
DWIDTH 14 0
BBX 11 12 2 0
ATTRIBUTES 36b0
BITMAP
0e00
0a00
0e00
0000
0000
7fe0
ffe0
c060
c060
c060
fc60
7c60
ENDCHAR
STARTCHAR ae
ENCODING 230
SWIDTH 1162 0
DWIDTH 23 0
BBX 20 7 2 0
ATTRIBUTES 59d8
BITMAP
7fffe0
fffff0
c061e0
c06380
c06000
fe7ff0
7e7ff0
ENDCHAR
STARTCHAR ccedilla
ENCODING 231
SWIDTH 707 0
DWIDTH 14 0
BBX 11 10 2 -3
ATTRIBUTES 36b0
BITMAP
7fe0
ffe0
c000
c000
c000
ffe0
7fe0
0400
0600
0600
ENDCHAR
STARTCHAR egrave
ENCODING 232
SWIDTH 707 0
DWIDTH 14 0
BBX 11 12 2 0
ATTRIBUTES 36b0
BITMAP
0c00
0c00
0200
0000
0000
7fc0
ffe0
c3c0
c700
c000
ffe0
7fe0
ENDCHAR
STARTCHAR eacute
ENCODING 233
SWIDTH 707 0
DWIDTH 14 0
BBX 11 12 2 0
ATTRIBUTES 36b0
BITMAP
0600
0600
0800
0000
0000
7fc0
ffe0
c1c0
c700
c000
ffe0
7fe0
ENDCHAR
STARTCHAR ecircumflex
ENCODING 234
SWIDTH 707 0
DWIDTH 14 0
BBX 11 12 2 0
ATTRIBUTES 36b0
BITMAP
0400
0e00
1b00
0000
0000
7fc0
ffe0
c3c0
c700
c000
ffe0
7fe0
ENDCHAR
STARTCHAR ediaeresis
ENCODING 235
SWIDTH 707 0
DWIDTH 14 0
BBX 11 11 2 0
ATTRIBUTES 36b0
BITMAP
1b00
1b00
0000
0000
7fc0
ffe0
c1c0
c700
c000
ffe0
7fe0
ENDCHAR
STARTCHAR igrave
ENCODING 236
SWIDTH 252 0
DWIDTH 5 0
BBX 3 12 2 0
ATTRIBUTES 1388
BITMAP
c0
c0
40
00
00
c0
c0
c0
c0
c0
c0
c0
ENDCHAR
STARTCHAR iacute
ENCODING 237
SWIDTH 252 0
DWIDTH 5 0
BBX 2 12 2 0
ATTRIBUTES 1388
BITMAP
c0
c0
80
00
00
c0
c0
c0
c0
c0
c0
c0
ENDCHAR
STARTCHAR icircumflex
ENCODING 238
SWIDTH 252 0
DWIDTH 5 0
BBX 6 12 0 0
ATTRIBUTES 1388
BITMAP
30
78
dc
48
00
30
30
30
30
30
30
30
ENDCHAR
STARTCHAR idiaeresis
ENCODING 239
SWIDTH 252 0
DWIDTH 5 0
BBX 5 12 0 0
ATTRIBUTES 1388
BITMAP
d8
d8
00
00
00
60
60
60
60
60
60
60
ENDCHAR
STARTCHAR eth
ENCODING 240
SWIDTH 707 0
DWIDTH 14 0
BBX 11 12 2 0
ATTRIBUTES 36b0
BITMAP
ffc0
ffe0
1860
1860
0060
7fe0
ffe0
c060
c060
c060
ffe0
7fc0
ENDCHAR
STARTCHAR ntilde
ENCODING 241
SWIDTH 707 0
DWIDTH 14 0
BBX 11 12 2 0
ATTRIBUTES 36b0
BITMAP
0180
1f80
3e00
3000
0000
7fc0
ffe0
c060
c060
c060
c060
c060
ENDCHAR
STARTCHAR ograve
ENCODING 242
SWIDTH 707 0
DWIDTH 14 0
BBX 11 12 2 0
ATTRIBUTES 36b0
BITMAP
0c00
0c00
0200
0000
0000
7fc0
ffe0
c060
c060
c060
ffe0
7fc0
ENDCHAR
STARTCHAR oacute
ENCODING 243
SWIDTH 707 0
DWIDTH 14 0
BBX 11 12 2 0
ATTRIBUTES 36b0
BITMAP
0600
0600
0800
0000
0000
7fc0
ffe0
c060
c060
c060
ffe0
7fc0
ENDCHAR
STARTCHAR ocircumflex
ENCODING 244
SWIDTH 707 0
DWIDTH 14 0
BBX 11 12 2 0
ATTRIBUTES 36b0
BITMAP
0400
0e00
1b00
0000
0000
7fc0
ffe0
c060
c060
c060
ffe0
7fc0
ENDCHAR
STARTCHAR otilde
ENCODING 245
SWIDTH 707 0
DWIDTH 14 0
BBX 11 12 2 0
ATTRIBUTES 36b0
BITMAP
0180
1f80
3e00
3000
0000
7fc0
ffe0
c060
c060
c060
ffe0
7fc0
ENDCHAR
STARTCHAR odiaeresis
ENCODING 246
SWIDTH 707 0
DWIDTH 14 0
BBX 11 11 2 0
ATTRIBUTES 36b0
BITMAP
1b00
1b00
0000
0000
7fc0
ffe0
c060
c060
c060
ffe0
7fc0
ENDCHAR
STARTCHAR division
ENCODING 247
SWIDTH 505 0
DWIDTH 10 0
BBX 7 9 2 2
ATTRIBUTES 2710
BITMAP
18
18
00
00
fe
fe
00
18
18
ENDCHAR
STARTCHAR oslash
ENCODING 248
SWIDTH 707 0
DWIDTH 14 0
BBX 11 7 2 0
ATTRIBUTES 36b0
BITMAP
7fc0
ffe0
c660
cc60
c860
ffe0
7fc0
ENDCHAR
STARTCHAR ugrave
ENCODING 249
SWIDTH 707 0
DWIDTH 14 0
BBX 11 12 2 0
ATTRIBUTES 36b0
BITMAP
0c00
0c00
0200
0000
0000
c060
c060
c060
c060
c060
ffe0
7fc0
ENDCHAR
STARTCHAR uacute
ENCODING 250
SWIDTH 707 0
DWIDTH 14 0
BBX 11 12 2 0
ATTRIBUTES 36b0
BITMAP
0600
0600
0800
0000
0000
c060
c060
c060
c060
c060
ffe0
7fc0
ENDCHAR
STARTCHAR ucircumflex
ENCODING 251
SWIDTH 707 0
DWIDTH 14 0
BBX 11 12 2 0
ATTRIBUTES 36b0
BITMAP
0400
0e00
1b00
0000
0000
c060
c060
c060
c060
c060
ffe0
7fc0
ENDCHAR
STARTCHAR udiaeresis
ENCODING 252
SWIDTH 707 0
DWIDTH 14 0
BBX 11 11 2 0
ATTRIBUTES 36b0
BITMAP
1b00
1b00
0000
0000
c060
c060
c060
c060
c060
ffe0
7fc0
ENDCHAR
STARTCHAR yacute
ENCODING 253
SWIDTH 707 0
DWIDTH 14 0
BBX 11 17 2 -5
ATTRIBUTES 36b0
BITMAP
0600
0600
0800
0000
0000
c060
c060
c060
c060
c060
ffe0
7fe0
0060
0060
0060
0060
0060
ENDCHAR
STARTCHAR thorn
ENCODING 254
SWIDTH 707 0
DWIDTH 14 0
BBX 11 12 2 0
ATTRIBUTES 36b0
BITMAP
c000
c000
c000
ffc0
ffe0
0060
0060
0060
ffe0
ffc0
c000
c000
ENDCHAR
STARTCHAR ydiaeresis
ENCODING 255
SWIDTH 707 0
DWIDTH 14 0
BBX 11 16 2 -5
ATTRIBUTES 36b0
BITMAP
1b00
1b00
0000
0000
c060
c060
c060
c060
c060
ffe0
7fe0
0060
0060
0060
0060
0060
ENDCHAR
ENDFONT
